# Made in Blockbench 4.12.5
mtllib grate.mtl

o cuboid_selection
v 1 0.9375 -0.0625
v 0 0.9375 -0.0625
v 0 0.875 0
v 1 0.875 0
v 1 0.875 0
v 0 0.875 0
v 1 0.3125 0
v 0 0.3125 0
v 1 0.3125 0
v 0.9375 0.25 0.0625
v 0 0.3125 0
v 0.0625 0.25 0.0625
vt 1 0.9374999999999982
vt 1 0.9999999999999982
vt 0 0.9999999999999982
vt 0 0.9374999999999982
vt 1 1
vt 0 1
vt 0 0.9375
vt 1 0.9375
vt 1 0.375
vt 1 0.9375
vt 0 0.9375
vt 0 0.375
vt 1 0.9375
vt 0 0.9375
vt 0 0.375
vt 1 0.375
vt 1 0.375
vt 0 0.375
vt 0.0625 0.3125
vt 0.9375 0.3125
vt 0.9375 0.3125
vt 1 0.375
vt 0 0.375
vt 0.0625 0.3125
vn 0 0.7071067811865476 0.7071067811865476
vn 0 -0.7071067811865476 -0.7071067811865476
vn 0 0 -1
vn 0 0 1
vn 0 -0.7071067811865476 -0.7071067811865476
vn 0 0.7071067811865476 0.7071067811865476
usemtl grate
f 4/1/1 1/2/1 2/3/1 3/4/1
f 2/5/2 1/6/2 4/7/2 3/8/2
f 8/9/3 6/10/3 5/11/3 7/12/3
f 5/13/4 6/14/4 8/15/4 7/16/4
f 11/17/5 9/18/5 10/19/5 12/20/5
f 10/21/6 9/22/6 11/23/6 12/24/6